<svg width="32" height="32" viewBox="0 0 32 32" fill="none" xmlns="http://www.w3.org/2000/svg">
<path d="M29.3334 5.33333V6.66667H6.66675C6.31313 6.66667 5.97399 6.80714 5.72394 7.05719C5.47389 7.30724 5.33341 7.64638 5.33341 8C5.33341 8.35362 5.47389 8.69276 5.72394 8.94281C5.97399 9.19286 6.31313 9.33333 6.66675 9.33333H28.0001C28.3537 9.33333 28.6928 9.47381 28.9429 9.72386C29.1929 9.97391 29.3334 10.313 29.3334 10.6667V25.3333C29.3334 26.0406 29.0525 26.7189 28.5524 27.219C28.0523 27.719 27.374 28 26.6667 28H17.3334V19.2187L19.0574 20.9427C19.3089 21.1855 19.6457 21.3199 19.9953 21.3169C20.3449 21.3139 20.6793 21.1736 20.9265 20.9264C21.1737 20.6792 21.3139 20.3448 21.317 19.9952C21.32 19.6456 21.1856 19.3088 20.9427 19.0573L16.9427 15.0573C16.8189 14.9332 16.6718 14.8347 16.5098 14.7674C16.3478 14.7002 16.1741 14.6656 15.9987 14.6656C15.8234 14.6656 15.6497 14.7002 15.4877 14.7674C15.3257 14.8347 15.1786 14.9332 15.0547 15.0573L11.0547 19.0573C10.8119 19.3088 10.6775 19.6456 10.6805 19.9952C10.6836 20.3448 10.8238 20.6792 11.071 20.9264C11.3182 21.1736 11.6526 21.3139 12.0022 21.3169C12.3518 21.3199 12.6886 21.1855 12.9401 20.9427L14.6667 19.2187V28H5.33341C4.62617 28 3.94789 27.719 3.4478 27.219C2.9477 26.7189 2.66675 26.0406 2.66675 25.3333V6.66667C2.66675 5.95942 2.9477 5.28115 3.4478 4.78105C3.94789 4.28095 4.62617 4 5.33341 4H28.0001C28.3537 4 28.6928 4.14048 28.9429 4.39052C29.1929 4.64057 29.3334 4.97971 29.3334 5.33333Z" fill="#04CEA7"/>
</svg>
