<svg width="24" height="24" viewBox="0 0 24 24" fill="none" xmlns="http://www.w3.org/2000/svg">
<g clip-path="url(#clip0_532_3944)">
<path d="M22.9585 8.30627L21.467 9.7977L20.9665 9.29715C20.7516 10.8294 19.5416 12.0756 17.9672 12.2964L18.4678 12.7969C17.9638 13.301 13.6744 17.5905 13.4692 17.7957L12.9679 17.2944C12.6983 19.2027 10.9336 20.573 8.96881 20.2953C9.26138 22.3622 7.75407 23.4676 7.6748 23.5899L12.7067 24V21.5747L19.5444 23.8539L17.2615 17.7662H21.1898V13.5246H23.9248L22.9585 8.30627Z" fill="#04CEA7"/>
<path d="M1.0909 16.1832C1.87577 15.4665 2.92315 15.1495 3.97256 15.2972C3.69247 13.3068 5.09086 11.5618 6.97157 11.298L6.47106 10.7975L10.47 6.79849L10.47 6.79845C10.47 6.79845 15.6064 1.68295 15.68 1.49887L11.293 0V2.64691L4.45543 0.367742L6.51522 5.86045L1.97337 3.91396L2.72705 10.697H0.0749512L1.0909 16.1832Z" fill="#04CEA7"/>
<path d="M16.4684 12.7969C16.1289 12.4575 11.8058 8.13434 11.4697 7.79822L10.47 8.79795L12.8486 11.1766L9.46892 9.79896L8.47046 10.7974C8.80804 11.135 13.131 15.458 13.4692 15.7961L14.4689 14.7964L12.0506 12.3781L15.4865 13.7787L16.4684 12.7969Z" fill="#04CEA7"/>
<path d="M18.2181 4.54907C18.9067 5.23766 20.0248 5.24157 20.7174 4.54907C20.8553 4.41113 21.0792 4.41089 21.2173 4.54907L21.7172 5.04887C21.855 5.18672 21.855 5.411 21.7172 5.54876L20.4675 6.79846L21.4672 7.79819L22.7169 6.54849C23.406 5.85943 23.406 4.73829 22.7169 4.04913L22.217 3.54934C21.5295 2.86164 20.4113 2.8558 19.7177 3.54929C19.5798 3.68724 19.356 3.68742 19.2179 3.54929L18.718 3.04954C18.5801 2.91165 18.5801 2.68741 18.7179 2.54961L19.9676 1.2999L18.9679 0.300171L17.7182 1.54987C17.0292 2.23889 17.0292 3.36012 17.7182 4.04923L18.2181 4.54907Z" fill="#04CEA7"/>
<path d="M5.58806 18.6775C5.58311 18.6562 5.59093 17.9153 4.97148 17.2957C4.14452 16.469 2.7991 16.4689 1.97223 17.2958L0.472656 18.7954L2.47207 20.7948V20.7949C2.93224 21.255 5.10787 23.4306 5.47137 23.7941L6.97094 22.2946C7.79786 21.4676 7.79786 20.1222 6.97094 19.2953C6.59802 18.9223 6.11066 18.7056 5.58806 18.6775ZM3.9717 19.2953L3.47185 19.7952L2.47212 18.7954L2.97197 18.2956C3.24762 18.02 3.69614 18.0199 3.9717 18.2956C4.24735 18.5712 4.24735 19.0197 3.9717 19.2953ZM5.97121 21.2948L5.47137 21.7947L4.47164 20.7949L4.97148 20.2951C5.24765 20.0188 5.69494 20.0188 5.97121 20.2951C6.24686 20.5706 6.24686 21.0192 5.97121 21.2948Z" fill="#04CEA7"/>
<path d="M8.97051 13.2969C8.14364 12.4698 6.79813 12.4699 5.97126 13.2969C5.14435 14.1238 5.14435 15.4692 5.97126 16.2961C6.67512 17 7.27026 17.5951 7.97077 18.2956C8.79952 19.1244 10.141 19.1245 10.97 18.2956H10.97C11.7987 17.4667 11.7989 16.1252 10.97 15.2964C10.2689 14.5952 9.67432 14.0007 8.97051 13.2969ZM9.97024 17.2957L9.97019 17.2958C9.69402 17.5721 9.24677 17.5721 8.97051 17.2958C8.26942 16.5947 7.67485 16.0002 6.97099 15.2963C6.69534 15.0207 6.69534 14.5722 6.97099 14.2965C7.2466 14.0209 7.69507 14.0208 7.97077 14.2965C8.67463 15.0005 9.26972 15.5955 9.97024 16.2961C10.2465 16.5723 10.2466 17.0195 9.97024 17.2957Z" fill="#04CEA7"/>
<path d="M18.9678 10.2975C19.7947 9.47062 19.7947 8.12515 18.9678 7.29828C18.6902 7.02065 15.9025 4.23301 15.4687 3.79919L14.469 4.79893C14.9 5.22992 17.6911 8.021 17.9681 8.29802C18.2437 8.57367 18.2437 9.02214 17.9681 9.29784C17.6924 9.57336 17.244 9.57345 16.9683 9.29784C16.6959 9.02539 13.8945 6.22404 13.4692 5.79866L12.4695 6.79839C12.8948 7.22373 15.6961 10.0251 15.9686 10.2975C16.7954 11.1244 18.1409 11.1244 18.9678 10.2975Z" fill="#04CEA7"/>
</g>
<defs>
<clipPath id="clip0_532_3944">
<rect width="24" height="24" fill="white"/>
</clipPath>
</defs>
</svg>
