<svg width="22" height="22" viewBox="0 0 22 22" fill="none" xmlns="http://www.w3.org/2000/svg">
<g clip-path="url(#clip0_549_5927)">
<path d="M21.3327 7.37203L9.70391 19.0008C9.28098 19.4248 8.70772 19.6644 8.10891 19.6678C8.10354 19.6678 8.09821 19.6681 8.09289 19.6681C8.08756 19.6681 8.08219 19.6678 8.07686 19.6677C8.0262 19.6674 7.97558 19.6651 7.92501 19.6613C7.8849 19.6584 7.8448 19.6545 7.8047 19.6493C7.75558 19.6431 7.70651 19.6358 7.65778 19.6264C7.65349 19.6256 7.64919 19.6244 7.64489 19.6236C7.59458 19.6136 7.54469 19.6015 7.49502 19.588C7.44603 19.5747 7.39735 19.5602 7.34914 19.5436C7.34583 19.5425 7.34248 19.5416 7.33917 19.5404C7.33251 19.5381 7.32594 19.5353 7.31932 19.5329C7.22122 19.4977 7.12568 19.4558 7.03336 19.4075C6.98709 19.3831 6.94171 19.3565 6.89681 19.3287C6.81251 19.2769 6.73169 19.2196 6.65489 19.1572C6.62507 19.1329 6.59573 19.1077 6.56685 19.0816C6.53798 19.0556 6.50965 19.0286 6.48186 19.0008L0.667285 13.1865C0.240026 12.7592 -4.02905e-06 12.1797 0 11.5755C4.02915e-06 10.9712 0.240041 10.3917 0.667307 9.96449C1.09457 9.53723 1.67407 9.2972 2.27831 9.2972C2.88255 9.29721 3.46204 9.53725 3.8893 9.96451L8.09276 14.1679L18.1107 4.14998C18.322 3.93736 18.5732 3.76854 18.8499 3.6532C19.1266 3.53785 19.4233 3.47824 19.7231 3.47779C20.0229 3.47733 20.3198 3.53604 20.5969 3.65056C20.8739 3.76507 21.1256 3.93313 21.3376 4.1451C21.5496 4.35708 21.7176 4.6088 21.8321 4.88585C21.9466 5.16289 22.0054 5.45981 22.0049 5.75959C22.0044 6.05937 21.9448 6.35611 21.8295 6.6328C21.7141 6.9095 21.5453 7.16071 21.3327 7.37203Z" fill="#04CEA7"/>
</g>
<defs>
<clipPath id="clip0_549_5927">
<rect width="22" height="22" fill="white"/>
</clipPath>
</defs>
</svg>
