<svg width="14" height="14" viewBox="0 0 14 14" fill="none" xmlns="http://www.w3.org/2000/svg">
<path fill-rule="evenodd" clip-rule="evenodd" d="M1.16663 2.33335C1.16663 1.68902 1.68896 1.16669 2.33329 1.16669H8.16663C8.81096 1.16669 9.33329 1.68902 9.33329 2.33335V4.66669H11.6666C12.311 4.66669 12.8333 5.18902 12.8333 5.83335V11.6667C12.8333 12.311 12.311 12.8334 11.6666 12.8334H5.83329C5.18896 12.8334 4.66663 12.311 4.66663 11.6667V9.33335H2.33329C1.68896 9.33335 1.16663 8.81102 1.16663 8.16669V2.33335ZM5.83329 9.33335V11.6667H11.6666V5.83335H9.33329V8.16669C9.33329 8.81102 8.81096 9.33335 8.16663 9.33335H5.83329ZM8.16663 8.16669H2.33329V2.33335L8.16663 2.33335V8.16669Z" fill="white"/>
</svg>
