<svg width="26" height="26" viewBox="0 0 26 26" fill="none" xmlns="http://www.w3.org/2000/svg">
<path d="M14.7087 11.1431L17.8457 11.599L15.5758 13.8115C15.4802 13.905 15.4365 14.0394 15.459 14.1712L15.9949 17.2956L13.1891 15.8204C13.0709 15.7581 12.9292 15.7581 12.811 15.8204L10.0051 17.2956L10.5411 14.1712C10.5635 14.0395 10.5199 13.905 10.4243 13.8115L8.15437 11.599L11.2913 11.1431C11.4236 11.1239 11.5379 11.0407 11.5972 10.9207L12.9923 8.06232L14.4029 10.9207C14.4622 11.0407 14.5764 11.1239 14.7087 11.1431ZM21.5312 13C21.5312 17.7042 17.7042 21.5312 13 21.5312C8.29579 21.5312 4.46875 17.7042 4.46875 13C4.46875 8.29579 8.29579 4.46875 13 4.46875C17.7042 4.46875 21.5312 8.29579 21.5312 13ZM18.6484 11.3381C18.5552 11.0509 18.3116 10.8456 18.0128 10.8021L15.037 10.3697L13.7063 7.67313C13.5729 7.40257 13.3019 7.23413 13 7.23413C12.698 7.23413 12.4273 7.40236 12.2936 7.67313L10.9629 10.3697L7.98728 10.8021C7.68836 10.8456 7.44478 11.0509 7.35154 11.3381C7.2581 11.6253 7.33448 11.9346 7.55068 12.1455L9.70393 14.2443L9.19551 17.2081C9.14452 17.5058 9.26473 17.801 9.50913 17.9786C9.64718 18.0787 9.80866 18.1295 9.97112 18.1295C10.0963 18.1295 10.2221 18.0994 10.3383 18.0383L13 16.639L15.6614 18.0381C15.9292 18.1789 16.2466 18.1557 16.4908 17.9786C16.7352 17.801 16.8554 17.5058 16.8044 17.2081L16.296 14.2443L18.449 12.1455C18.6654 11.9346 18.7419 11.6253 18.6484 11.3381ZM24.7812 13C24.7812 19.4962 19.4962 24.7812 13 24.7812C6.50378 24.7812 1.21875 19.4962 1.21875 13C1.21875 6.50378 6.50378 1.21875 13 1.21875C19.4962 1.21875 24.7812 6.50378 24.7812 13ZM22.3438 13C22.3438 7.8479 18.1521 3.65625 13 3.65625C7.8479 3.65625 3.65625 7.8479 3.65625 13C3.65625 18.1521 7.8479 22.3438 13 22.3438C18.1521 22.3438 22.3438 18.1521 22.3438 13Z" fill="#04CEA7"/>
</svg>
