<svg width="34" height="37" viewBox="0 0 34 37" fill="none" xmlns="http://www.w3.org/2000/svg">
<path d="M0.847728 36.1283C0.282549 35.846 0 35.1404 0 34.4348C0 34.2936 0 34.0114 0 33.8703C0 23.4269 0 12.9835 0 2.68131C0 2.1168 0.141275 1.69347 0.282549 1.12896C0.423905 0.84666 0.706454 0.564443 0.989085 0.282227C7.06462 6.35062 12.9989 12.419 18.9331 18.4875C12.8576 24.1325 6.92334 30.0599 0.847728 36.1283Z" fill="#6687FF"/>
<path d="M24.8672 12.278C23.1716 13.9715 21.3348 15.665 19.6394 17.4996C13.9877 11.7135 8.19468 5.92729 2.54297 0.141108C2.54297 0.141108 2.54297 0 2.68424 0C10.0315 4.09263 17.3787 8.18535 24.8672 12.278Z" fill="#6687FF"/>
<path d="M2.54297 36.1282C8.19468 30.4832 13.9877 24.8382 19.6394 19.1931C21.1936 20.7455 22.8891 22.2979 24.7259 23.9914C17.3787 28.0841 10.0315 32.1767 2.68424 36.1282H2.54297Z" fill="#6687FF"/>
<path d="M25.7155 23.427C23.8787 21.7335 22.1832 20.04 20.3464 18.3465C22.1832 16.5118 24.0201 14.6772 25.8568 12.8425C26.422 13.1247 26.9871 13.407 27.5523 13.8304C28.9652 14.6772 30.5195 15.3828 31.9324 16.2295C32.3563 16.3706 32.6389 16.6529 32.9214 17.0763C33.4866 17.7819 33.4866 18.4876 32.9214 19.1932C32.6389 19.4754 32.3563 19.7577 31.9324 19.8988C29.9543 21.169 27.835 22.298 25.7155 23.427Z" fill="#6687FF"/>
</svg>
