<svg width="24" height="24" viewBox="0 0 24 24" fill="none" xmlns="http://www.w3.org/2000/svg">
<g clip-path="url(#clip0_532_3962)">
<path d="M20.7498 18.65C21.6498 17.6 22.3498 16.4 22.8998 15.15C24.2998 11.8 23.8998 8 21.8998 5C19.8998 2 16.6998 0.25 13.2498 0.25C12.5998 0.25 11.9498 0.3 11.2498 0.45H11.1498C10.9498 0.5 10.7998 0.75 10.7998 1C10.7998 1.25 11.0498 1.45 11.2998 1.45C13.3998 1.55 15.3498 2.4 16.7998 3.9C19.8998 7.1 19.9998 12.2 17.1498 15.55L15.2998 13.65C15.1498 13.5 14.9498 13.45 14.7498 13.55C14.5498 13.65 14.4498 13.8 14.4498 14V21.25C14.4498 21.55 14.6498 21.75 14.9498 21.75H21.9998C22.1998 21.75 22.3998 21.65 22.4498 21.45C22.5498 21.25 22.4998 21.05 22.3498 20.9L20.4998 19C20.5498 18.95 20.5998 18.85 20.6498 18.8L20.7498 18.65Z" fill="#04CEA7"/>
<path d="M12.6998 22.55C10.5998 22.45 8.64983 21.6 7.19982 20.1C4.09982 16.9 3.99982 11.8 6.84982 8.45L8.69982 10.35C8.84982 10.5 9.04982 10.55 9.24982 10.45C9.44982 10.35 9.54982 10.2 9.54982 10V2.75C9.54982 2.6 9.49982 2.5 9.39982 2.4C9.29982 2.3 9.19983 2.25 9.04982 2.25H1.99982C1.79982 2.25 1.59982 2.35 1.49982 2.55C1.44982 2.75 1.49982 2.95 1.59982 3.1L3.49982 5C3.44982 5.05 3.39982 5.15 3.34982 5.2L3.24982 5.3C2.34982 6.35 1.64982 7.55 1.09982 8.8C-0.300176 12.15 0.0998239 15.95 2.09982 18.95C4.09982 21.95 7.29982 23.7 10.7498 23.7C11.3998 23.7 12.0498 23.65 12.6998 23.5H12.7998C13.0498 23.45 13.1998 23.2 13.1998 22.95C13.1998 22.75 12.9498 22.55 12.6998 22.55Z" fill="#04CEA7"/>
</g>
<defs>
<clipPath id="clip0_532_3962">
<rect width="24" height="24" fill="white"/>
</clipPath>
</defs>
</svg>
