<svg width="46" height="46" viewBox="0 0 46 46" fill="none" xmlns="http://www.w3.org/2000/svg">
<path d="M26.4705 17.1473H7.23528C5.57053 17.1473 4.21167 18.506 4.21167 20.1707V38.806C4.21167 40.4708 5.57053 41.8236 7.23528 41.8236H26.4705C28.1353 41.8236 29.4941 40.4708 29.4941 38.806V20.1707C29.4941 18.506 28.1353 17.1473 26.4705 17.1473ZM10.994 37.4002C9.71173 37.4002 8.67643 36.359 8.67643 35.0885C8.67643 33.806 9.71173 32.7707 10.994 32.7707C12.2646 32.7707 13.3058 33.806 13.3058 35.0885C13.3058 36.359 12.2646 37.4002 10.994 37.4002ZM10.994 26.206C9.71173 26.206 8.67643 25.1649 8.67643 23.8942C8.67643 22.6178 9.71173 21.5766 10.994 21.5766C12.2646 21.5766 13.3058 22.6178 13.3058 23.8942C13.3058 25.1649 12.2646 26.206 10.994 26.206ZM22.7176 37.4002C21.4411 37.4002 20.3999 36.359 20.3999 35.0885C20.3999 33.806 21.4411 32.7707 22.7176 32.7707C23.9941 32.7707 25.0294 33.806 25.0294 35.0885C25.0294 36.359 23.9941 37.4002 22.7176 37.4002ZM22.7176 26.206C21.4411 26.206 20.3999 25.1649 20.3999 23.8942C20.3999 22.6178 21.4411 21.5766 22.7176 21.5766C23.9941 21.5766 25.0294 22.6178 25.0294 23.8942C25.0294 25.1649 23.9941 26.206 22.7176 26.206Z" fill="#04CEA7"/>
<path d="M40.9059 18.6707L27.3 5.06484C26.7353 4.49412 25.9764 4.18248 25.1706 4.17645H25.1647C24.3588 4.17645 23.6 4.49412 23.0294 5.06484L12.1235 15.9707H26.4706C28.7882 15.9707 30.6706 17.8529 30.6706 20.1707V33.1766L40.9059 22.9412C42.0824 21.7648 42.0824 19.8471 40.9059 18.6707ZM26.8235 14.1295C25.9236 15.0295 24.4589 15.0295 23.5589 14.1295C22.653 13.2236 22.653 11.753 23.553 10.853C24.4589 9.95296 25.9236 9.95296 26.8294 10.853C27.7294 11.753 27.7294 13.2236 26.8235 14.1295ZM35.1176 22.4178C34.2176 23.3177 32.747 23.3177 31.8471 22.4178C30.9412 21.5119 30.9412 20.0472 31.8412 19.1472C32.747 18.2413 34.2176 18.2413 35.1176 19.1472C36.0177 20.0472 36.0177 21.5119 35.1176 22.4178Z" fill="#04CEA7"/>
</svg>
