<svg width="15" height="15" viewBox="0 0 15 15" fill="none" xmlns="http://www.w3.org/2000/svg">
<g clip-path="url(#clip0_522_4392)">
<path d="M4.99982 4.99998C7.86138 4.99998 9.99957 3.86876 9.99957 2.85727C9.99957 1.84587 7.86133 0.7146 4.99982 0.7146C2.13831 0.7146 0.00012207 1.84587 0.00012207 2.85727C0.00012207 3.86876 2.13826 4.99998 4.99982 4.99998Z" fill="#04CEA7" fill-opacity="0.3"/>
<path d="M4.9997 13.5712C5.41736 13.5712 5.81936 13.5469 6.20174 13.5027C5.87942 13.0884 5.61286 12.6287 5.41317 12.1351C5.27597 12.1397 5.13829 12.1429 4.99965 12.1429C3.36456 12.1429 1.81611 11.8189 0.639642 11.2306C0.407998 11.1148 0.194831 10.9904 0 10.8586V11.4285C0 12.4399 2.13814 13.5712 4.9997 13.5712Z" fill="#04CEA7" fill-opacity="0.3"/>
<path d="M4.99969 10.714C5.01435 10.714 5.02878 10.7138 5.0434 10.7137C5.01412 10.4796 4.99883 10.2411 4.99883 9.99921C4.99883 9.75737 5.01407 9.51906 5.0434 9.28513C5.02878 9.28513 5.01431 9.28566 4.99969 9.28566C3.3646 9.28566 1.81619 8.96167 0.639677 8.37341C0.407984 8.25759 0.19477 8.13315 -6.10352e-05 8.00146V8.57129C-1.34108e-05 9.58274 2.13813 10.714 4.99969 10.714Z" fill="#04CEA7" fill-opacity="0.3"/>
<path d="M4.99969 7.85702C5.14142 7.85702 5.28124 7.85417 5.4193 7.84874C5.64104 7.30472 5.94408 6.80224 6.31355 6.35662C5.88578 6.40377 5.44616 6.42877 4.99969 6.42877C3.3646 6.42877 1.81619 6.10478 0.639677 5.51652C0.407984 5.40065 0.19477 5.27626 -6.10352e-05 5.14453V5.7144C-1.34108e-05 6.72585 2.13813 7.85702 4.99969 7.85702Z" fill="#04CEA7" fill-opacity="0.3"/>
<path d="M7.14279 7.63159C6.8337 8.09626 6.61287 8.62436 6.50424 9.19185C6.45409 9.45345 6.42761 9.72334 6.42761 9.99933C6.42761 10.2068 6.44276 10.4108 6.47138 10.6105C6.54172 11.1011 6.6954 11.565 6.91762 11.9875C7.15079 12.431 7.45925 12.8289 7.8261 13.1639C8.58847 13.8602 9.60239 14.2855 10.7138 14.2855C13.0772 14.2855 15 12.3627 15 9.99933C15 7.63587 13.0772 5.71313 10.7138 5.71313C10.4695 5.71313 10.23 5.73399 9.99677 5.77343C8.80864 5.97435 7.78529 6.66581 7.14279 7.63159Z" fill="#04CEA7" fill-opacity="0.3"/>
</g>
<defs>
<clipPath id="clip0_522_4392">
<rect width="15" height="15" fill="white"/>
</clipPath>
</defs>
</svg>
