<svg width="24" height="16" viewBox="0 0 24 16" fill="none" xmlns="http://www.w3.org/2000/svg">
<path d="M23.9298 10.3392L22.5784 2.99888C22.2584 1.26122 20.7469 0 18.9843 0H16.5021C16.3332 0 16.1699 0.0608437 16.0421 0.171375L14.6141 1.40667H9.38582L7.95782 0.171375C7.83004 0.0608437 7.66677 0 7.49783 0H5.01566C3.25302 0 1.7414 1.26117 1.42157 2.99888L0.0701153 10.3392C-0.342479 12.5799 1.10704 14.7375 3.33454 15.1956C4.89665 15.5168 6.47718 14.9339 7.4593 13.6746L9.00308 11.6951H14.9969L16.5407 13.6746C17.5169 14.9263 19.0937 15.5187 20.6655 15.1956C22.8877 14.7386 24.3433 12.5847 23.9298 10.3392ZM7.81832 7.25733H6.79958V8.27606C6.79958 8.66438 6.48477 8.97919 6.09646 8.97919C5.70815 8.97919 5.39333 8.66438 5.39333 8.27606V7.25733H4.37465C3.98633 7.25733 3.67152 6.94252 3.67152 6.5542C3.67152 6.16589 3.98633 5.85108 4.37465 5.85108H5.39338V4.8323C5.39338 4.44398 5.70819 4.12917 6.09651 4.12917C6.48482 4.12917 6.79963 4.44398 6.79963 4.8323V5.85108H7.81832C8.20663 5.85108 8.52144 6.16589 8.52144 6.5542C8.52144 6.94252 8.20663 7.25733 7.81832 7.25733ZM18.1569 9.22514C16.6842 9.22514 15.4859 8.02697 15.4859 6.5542C15.4859 5.08144 16.6841 3.88327 18.1569 3.88327C19.6296 3.88327 20.8278 5.08144 20.8278 6.5542C20.8278 8.02702 19.6297 9.22514 18.1569 9.22514Z" fill="#04CEA7"/>
</svg>
