<svg width="46" height="46" viewBox="0 0 46 46" fill="none" xmlns="http://www.w3.org/2000/svg">
<g clip-path="url(#clip0_182_151)">
<path d="M28.285 13.479H32.061L31.996 11.179H28.804L31.804 4.979L28.41 4.695L25.429 6.98L26.423 4.396L22.944 4L21.803 7.229L19.928 4.729L14.77 4.55L18.183 11.18L15.102 11.081V13.478H18.071C11.739 17.184 7.177 26.871 7.177 32.104C7.177 38.664 14.341 42.354 23.177 42.354C32.013 42.354 39.177 38.664 39.177 32.104C39.178 26.871 34.617 17.185 28.285 13.479ZM24.515 35.251V37.522H22.332V35.407C20.84 35.342 19.392 34.938 18.546 34.45L19.214 31.846C20.149 32.359 21.464 32.825 22.911 32.825C24.18 32.825 25.049 32.335 25.049 31.446C25.049 30.597 24.337 30.062 22.689 29.507C20.305 28.706 18.68 27.591 18.68 25.433C18.68 23.473 20.061 21.935 22.444 21.469V19.353H24.627V21.313C26.118 21.381 27.122 21.69 27.856 22.047L27.21 24.564C26.631 24.32 25.606 23.806 24.003 23.806C22.555 23.806 22.087 24.429 22.087 25.052C22.087 25.788 22.867 26.255 24.76 26.968C27.409 27.906 28.479 29.128 28.479 31.134C28.48 33.113 27.076 34.806 24.515 35.251Z" fill="#04CEA7"/>
</g>
<defs>
<clipPath id="clip0_182_151">
<rect width="38.355" height="38.354" fill="white" transform="translate(4 4)"/>
</clipPath>
</defs>
</svg>
