<svg width="46" height="46" viewBox="0 0 46 46" fill="none" xmlns="http://www.w3.org/2000/svg">
<g clip-path="url(#clip0_182_139)">
<path d="M25.9008 19.8477L31.2261 20.6216L27.3727 24.3777C27.2103 24.5363 27.1363 24.7646 27.1743 24.9882L28.0842 30.2923L23.321 27.7879C23.1203 27.6822 22.8799 27.6822 22.6791 27.7879L17.9159 30.2923L18.8257 24.9882C18.8638 24.7646 18.7897 24.5363 18.6274 24.3777L14.774 20.6216L20.0993 19.8477C20.3239 19.815 20.5179 19.6739 20.6186 19.4702L22.9869 14.6177L25.3815 19.4702C25.4822 19.6739 25.6761 19.815 25.9008 19.8477ZM37.4828 23C37.4828 30.9859 30.9859 37.4828 23 37.4828C15.0141 37.4828 8.51724 30.9859 8.51724 23C8.51724 15.0141 15.0141 8.51724 23 8.51724C30.9859 8.51724 37.4828 15.0141 37.4828 23ZM32.5888 20.1788C32.4306 19.6912 32.017 19.3426 31.5099 19.2689L26.458 18.5348L24.1991 13.957C23.9725 13.4977 23.5125 13.2118 22.9999 13.2118C22.4874 13.2118 22.0277 13.4974 21.8008 13.957L19.5419 18.5348L14.4903 19.2689C13.9829 19.3426 13.5694 19.6912 13.4111 20.1788C13.2525 20.6663 13.3821 21.1914 13.7492 21.5493L17.4046 25.1124L16.5414 30.1437C16.4549 30.6492 16.659 31.1503 17.0739 31.4517C17.3082 31.6217 17.5823 31.7079 17.8581 31.7079C18.0706 31.7079 18.2841 31.6568 18.4814 31.553L22.9999 29.1777L27.5181 31.5527C27.9727 31.7918 28.5114 31.7524 28.926 31.4517C29.3409 31.1503 29.545 30.6492 29.4584 30.1437L28.5953 25.1124L32.2503 21.5493C32.6177 21.1914 32.7474 20.6663 32.5888 20.1788ZM43 23C43 34.0281 34.0281 43 23 43C11.9719 43 3 34.0281 3 23C3 11.9719 11.9719 3 23 3C34.0281 3 43 11.9719 43 23ZM38.8621 23C38.8621 14.2537 31.7463 7.13793 23 7.13793C14.2537 7.13793 7.13793 14.2537 7.13793 23C7.13793 31.7463 14.2537 38.8621 23 38.8621C31.7463 38.8621 38.8621 31.7463 38.8621 23Z" fill="#04CEA7"/>
</g>
<defs>
<clipPath id="clip0_182_139">
<rect width="46" height="46" rx="7.66667" fill="white"/>
</clipPath>
</defs>
</svg>
