<svg width="46" height="46" viewBox="0 0 46 46" fill="none" xmlns="http://www.w3.org/2000/svg">
<g clip-path="url(#clip0_182_127)">
<path d="M30.2704 4.16656H15.7296C15.2302 4.16656 14.7357 4.26493 14.2743 4.45604C13.813 4.64715 13.3937 4.92727 13.0406 5.2804C12.6875 5.63353 12.4073 6.05276 12.2162 6.51415C12.0251 6.97554 11.9268 7.47005 11.9268 7.96945V38.0306C11.9268 38.53 12.0251 39.0245 12.2162 39.4859C12.4073 39.9473 12.6875 40.3665 13.0406 40.7196C13.3937 41.0728 13.813 41.3529 14.2743 41.544C14.7357 41.7351 15.2302 41.8335 15.7296 41.8335H30.2704C30.7698 41.8335 31.2643 41.7351 31.7257 41.544C32.187 41.3529 32.6063 41.0728 32.9594 40.7196C33.3125 40.3665 33.5927 39.9473 33.7838 39.4859C33.9749 39.0245 34.0732 38.53 34.0732 38.0306V7.96945C34.0732 7.47005 33.9749 6.97554 33.7838 6.51415C33.5927 6.05276 33.3125 5.63353 32.9594 5.2804C32.6063 4.92727 32.187 4.64715 31.7257 4.45604C31.2643 4.26493 30.7698 4.16656 30.2704 4.16656ZM23.7385 38.2973H22.2615C21.916 38.2973 21.5846 38.1601 21.3403 37.9157C21.096 37.6714 20.9587 37.3401 20.9587 36.9946C20.9587 36.6491 21.096 36.3177 21.3403 36.0734C21.5846 35.8291 21.916 35.6918 22.2615 35.6918H23.7385C24.084 35.6918 24.4154 35.8291 24.6597 36.0734C24.904 36.3177 25.0413 36.6491 25.0413 36.9946C25.0413 37.3401 24.904 37.6714 24.6597 37.9157C24.4154 38.1601 24.084 38.2973 23.7385 38.2973ZM26.2568 10.3083H19.7432C19.3977 10.3083 19.0663 10.171 18.822 9.92672C18.5777 9.68241 18.4404 9.35106 18.4404 9.00555C18.4404 8.66004 18.5777 8.32869 18.822 8.08438C19.0663 7.84007 19.3977 7.70281 19.7432 7.70281H26.2568C26.6023 7.70281 26.9337 7.84007 27.178 8.08438C27.4223 8.32869 27.5596 8.66004 27.5596 9.00555C27.5596 9.35106 27.4223 9.68241 27.178 9.92672C26.9337 10.171 26.6023 10.3083 26.2568 10.3083Z" fill="#04CEA7"/>
</g>
<defs>
<clipPath id="clip0_182_127">
<rect width="46" height="46" rx="7.66667" fill="white"/>
</clipPath>
</defs>
</svg>
