<svg width="15" height="15" viewBox="0 0 15 15" fill="none" xmlns="http://www.w3.org/2000/svg">
<g clip-path="url(#clip0_522_4401)">
<g clip-path="url(#clip1_522_4401)">
<g clip-path="url(#clip2_522_4401)">
<path d="M7.5 0C3.36437 0 0 3.36437 0 7.5C0 11.6356 3.36437 15 7.5 15C11.6356 15 15 11.6356 15 7.5C15 3.36437 11.6356 0 7.5 0ZM11.0669 11.3794C10.945 11.5013 10.785 11.5625 10.625 11.5625C10.465 11.5625 10.305 11.5013 10.1831 11.3794L7.05813 8.25437C6.94063 8.1375 6.875 7.97875 6.875 7.8125V3.75C6.875 3.40438 7.155 3.125 7.5 3.125C7.845 3.125 8.125 3.40438 8.125 3.75V7.55375L11.0669 10.4956C11.3113 10.74 11.3113 11.135 11.0669 11.3794Z" fill="#04CEA7" fill-opacity="0.3"/>
</g>
</g>
</g>
<defs>
<clipPath id="clip0_522_4401">
<rect width="15" height="15" fill="white"/>
</clipPath>
<clipPath id="clip1_522_4401">
<rect width="15" height="15" fill="white"/>
</clipPath>
<clipPath id="clip2_522_4401">
<rect width="15" height="15" fill="white"/>
</clipPath>
</defs>
</svg>
