<svg width="24" height="24" viewBox="0 0 24 24" fill="none" xmlns="http://www.w3.org/2000/svg">
<path d="M8.42269 11.1183C8.42269 10.9547 8.29004 10.822 8.12691 10.822H7.65723V11.4141H8.12691C8.29004 11.4141 8.42269 11.2814 8.42269 11.1183Z" fill="#04CEA7"/>
<path d="M8.89144 12.8817C8.89144 12.7186 8.75879 12.5859 8.59566 12.5859H7.65723V13.178H8.59566C8.75879 13.178 8.89144 13.0453 8.89144 12.8817Z" fill="#04CEA7"/>
<path d="M19.2305 7.49717H18.0431V3.75702C18.0431 2.65827 17.1492 1.76483 16.051 1.76483H13.7827C13.7827 1.76483 13.7813 1.76483 13.7808 1.76483H10.2197C10.2197 1.76483 10.2183 1.76483 10.2178 1.76483H7.94955C6.85127 1.76483 5.95736 2.65827 5.95736 3.75702V7.49717H4.77002C3.67174 7.49717 2.77783 8.39108 2.77783 9.48936V14.5106C2.77783 15.6089 3.67174 16.5028 4.77002 16.5028H5.95736V20.243C5.95736 21.3417 6.85127 22.2351 7.94955 22.2351H16.0514C17.1497 22.2351 18.0436 21.3417 18.0436 20.243V16.5028H19.231C20.3292 16.5028 21.2231 15.6089 21.2231 14.5106V9.48936C21.2231 8.39108 20.3292 7.49717 19.231 7.49717H19.2305ZM12.5119 11.4141C12.8353 11.4141 13.0978 11.6765 13.0978 12C13.0978 12.3234 12.8353 12.5859 12.5119 12.5859H11.6705V13.178H12.8199C13.1438 13.178 13.4058 13.4405 13.4058 13.7639C13.4058 14.0873 13.1438 14.3498 12.8199 14.3498H11.0846C10.7606 14.3498 10.4986 14.0873 10.4986 13.7639V10.2361C10.4986 9.91264 10.7606 9.65014 11.0846 9.65014H12.8199C13.1438 9.65014 13.4058 9.91264 13.4058 10.2361C13.4058 10.5595 13.1438 10.822 12.8199 10.822H11.6705V11.4141H12.5119ZM9.59439 11.1183C9.59439 11.3269 9.55033 11.5251 9.47158 11.7051C9.83064 11.9728 10.0631 12.4008 10.0631 12.8817C10.0631 13.6912 9.40455 14.3498 8.59549 14.3498H7.07111C6.74768 14.3498 6.48518 14.0873 6.48518 13.7639V10.2361C6.48518 9.91264 6.74768 9.65014 7.07111 9.65014H8.12674C8.9358 9.65014 9.59439 10.3087 9.59439 11.1183ZM16.2019 13.7639C16.2019 14.0873 15.9394 14.3498 15.616 14.3498C15.2925 14.3498 15.03 14.0873 15.03 13.7639V10.822H14.3025C13.9791 10.822 13.7166 10.5595 13.7166 10.2361C13.7166 9.91264 13.9791 9.65014 14.3025 9.65014H16.9289C17.2524 9.65014 17.5149 9.91264 17.5149 10.2361C17.5149 10.5595 17.2524 10.822 16.9289 10.822H16.2019V13.7639ZM7.12877 3.75702C7.12877 3.30468 7.49674 2.93671 7.94908 2.93671H9.6333V3.11905C9.6333 3.70077 10.1063 4.17374 10.688 4.17374H13.3116C13.8933 4.17374 14.3663 3.70077 14.3663 3.11905V2.93671H16.0505C16.5028 2.93671 16.8708 3.30468 16.8708 3.75702V7.49717H7.12877V3.75702ZM16.8713 20.243C16.8713 20.6953 16.5033 21.0633 16.051 21.0633H7.94908C7.49674 21.0633 7.12877 20.6953 7.12877 20.243V16.5028H16.8713V20.243Z" fill="#04CEA7"/>
</svg>
