<svg width="15" height="15" viewBox="0 0 15 15" fill="none" xmlns="http://www.w3.org/2000/svg">
<g clip-path="url(#clip0_522_4408)">
<path fill-rule="evenodd" clip-rule="evenodd" d="M14.7188 8.81162V5.86475H1.28125V12.271C1.28125 13.5654 2.33063 14.6147 3.625 14.6147H8.91563C7.71063 13.8716 6.90625 12.5397 6.90625 11.021C6.90625 8.69287 8.79688 6.80225 11.125 6.80225C12.6438 6.80225 13.9756 7.60662 14.7188 8.81162ZM1.28125 4.92725H14.7188V4.4585C14.7188 3.16412 13.6694 2.11475 12.375 2.11475H11.2813V3.8335C11.2813 4.09225 11.0713 4.30225 10.8125 4.30225C10.5538 4.30225 10.3438 4.09225 10.3438 3.8335V2.11475H5.65625V3.8335C5.65625 4.09225 5.44625 4.30225 5.1875 4.30225C4.92875 4.30225 4.71875 4.09225 4.71875 3.8335V2.11475H3.625C2.33063 2.11475 1.28125 3.16412 1.28125 4.4585V4.92725Z" fill="#04CEA7" fill-opacity="0.3"/>
<path fill-rule="evenodd" clip-rule="evenodd" d="M14.7188 11.021C14.7188 9.03725 13.1088 7.42725 11.125 7.42725C9.14125 7.42725 7.53125 9.03725 7.53125 11.021C7.53125 13.0047 9.14125 14.6147 11.125 14.6147C13.1088 14.6147 14.7188 13.0047 14.7188 11.021ZM10.6563 9.61475V11.1772C10.6563 11.3547 10.7569 11.5172 10.9156 11.5966L11.8531 12.0654C12.0844 12.181 12.3663 12.0872 12.4819 11.8554C12.5975 11.6241 12.5037 11.3422 12.2719 11.2266L11.5938 10.8872V9.61475C11.5938 9.356 11.3838 9.146 11.125 9.146C10.8663 9.146 10.6563 9.356 10.6563 9.61475Z" fill="#04CEA7" fill-opacity="0.3"/>
<path fill-rule="evenodd" clip-rule="evenodd" d="M4.71875 2.11475H5.65625V1.646C5.65625 1.38725 5.44625 1.17725 5.1875 1.17725C4.92875 1.17725 4.71875 1.38725 4.71875 1.646V2.11475Z" fill="#04CEA7" fill-opacity="0.3"/>
<path fill-rule="evenodd" clip-rule="evenodd" d="M10.3438 2.11475H11.2812V1.646C11.2812 1.38725 11.0713 1.17725 10.8125 1.17725C10.5537 1.17725 10.3438 1.38725 10.3438 1.646V2.11475Z" fill="#04CEA7" fill-opacity="0.3"/>
</g>
<defs>
<clipPath id="clip0_522_4408">
<rect width="15" height="15" fill="white"/>
</clipPath>
</defs>
</svg>
