<svg width="28" height="28" viewBox="0 0 28 28" fill="none" xmlns="http://www.w3.org/2000/svg">
<path d="M8.16675 2.33337H19.8334C23.1001 2.33337 25.6667 4.90004 25.6667 8.16671V15.1667V16.3334C25.6667 19.4834 23.1001 22.1667 19.8334 22.1667H18.0834C17.7334 22.1667 17.3834 22.4 17.1501 22.6334L15.4001 24.9667C14.5834 26.0167 13.4167 26.0167 12.6001 24.9667L10.8501 22.6334C10.6167 22.2834 10.2667 22.1667 9.91675 22.1667H8.16675C4.90008 22.1667 2.33341 19.6 2.33341 16.3334V8.16671C2.33341 4.90004 4.90008 2.33337 8.16675 2.33337ZM12.8334 16.1H19.8334C20.3001 16.1 20.7667 15.75 20.7667 15.1667C20.7667 14.5834 20.4167 14.2334 19.8334 14.2334H12.8334C12.3667 14.2334 11.9001 14.5834 11.9001 15.1667C11.9001 15.75 12.3667 16.1 12.8334 16.1ZM8.16675 10.2667H19.8334C20.3001 10.2667 20.6501 9.80004 20.6501 9.33337C20.6501 8.86671 20.3001 8.51671 19.8334 8.51671H8.16675C7.70008 8.51671 7.23341 8.86671 7.23341 9.45004C7.23341 10.0334 7.70008 10.2667 8.16675 10.2667Z" fill="#04CEA7"/>
</svg>
