<svg width="25" height="25" viewBox="0 0 25 25" fill="none" xmlns="http://www.w3.org/2000/svg">
<g clip-path="url(#clip0_530_2798)">
<path d="M19.5607 12.9883C16.5614 12.9883 14.1213 15.4284 14.1213 18.4277C14.1213 21.427 16.5614 23.8672 19.5607 23.8672C22.56 23.8672 25.0001 21.4272 25.0001 18.4277C25.0001 15.4284 22.5598 12.9883 19.5607 12.9883ZM21.1297 19.1601H20.2931V19.9966C20.2931 20.4012 19.9653 20.7291 19.5607 20.7291C19.1562 20.7291 18.8283 20.4012 18.8283 19.9966V19.1601H17.9917C17.5872 19.1601 17.2593 18.8322 17.2593 18.4277C17.2593 18.0233 17.5872 17.6952 17.9917 17.6952H18.8283V16.8587C18.8283 16.4543 19.1562 16.1263 19.5607 16.1263C19.9653 16.1263 20.2931 16.4543 20.2931 16.8587V17.6952H21.1297C21.5342 17.6952 21.8621 18.0233 21.8621 18.4277C21.8621 18.8322 21.5342 19.1601 21.1297 19.1601Z" fill="#04CEA7"/>
<path d="M7.79333 12.0996C10.7926 12.0996 13.2327 9.65939 13.2327 6.66008C13.2327 3.66077 10.7924 1.2207 7.79333 1.2207C4.79402 1.2207 2.35376 3.66077 2.35376 6.66008C2.35376 9.65958 4.79402 12.0996 7.79333 12.0996Z" fill="#04CEA7"/>
<path d="M14.2314 14.043C13.6811 13.2376 12.9839 12.5395 12.1785 11.989C10.9852 12.9728 9.45707 13.5645 7.79329 13.5645C6.12951 13.5645 4.60134 12.9728 3.40791 11.989C1.35236 13.3936 0.000244141 15.7556 0.000244141 18.4277V21.1735C0.000244141 22.6589 1.20855 23.8672 2.6938 23.8672H12.8924C13.5478 23.8672 14.149 23.6319 14.6164 23.2414C13.4045 21.9967 12.6565 20.298 12.6565 18.4277C12.6565 16.7643 13.2479 15.2363 14.2314 14.043Z" fill="#04CEA7"/>
</g>
<defs>
<clipPath id="clip0_530_2798">
<rect width="25" height="25" fill="white"/>
</clipPath>
</defs>
</svg>
