<svg width="27" height="27" viewBox="0 0 27 27" fill="none" xmlns="http://www.w3.org/2000/svg">
<path d="M24.6285 11.169L23.4 9.94275C23.2502 9.79346 23.1315 9.616 23.0506 9.4206C22.9697 9.22521 22.9282 9.01573 22.9286 8.80425V7.36763C22.9277 6.49358 22.5802 5.65557 21.9623 5.03742C21.3443 4.41926 20.5064 4.07144 19.6324 4.07025H18.1958C17.7696 4.06911 17.3609 3.90017 17.0584 3.6L15.831 2.3715C15.2122 1.75432 14.374 1.40771 13.5 1.40771C12.6261 1.40771 11.7878 1.75432 11.169 2.3715L9.94275 3.6C9.63982 3.90044 9.23091 4.06974 8.80425 4.07138H7.3665C6.49245 4.07257 5.65456 4.42039 5.03662 5.03854C4.41868 5.65669 4.07115 6.4947 4.07025 7.36875V8.80425C4.07081 9.01566 4.02955 9.22508 3.94884 9.42047C3.86813 9.61586 3.74958 9.79336 3.6 9.94275L2.3715 11.169C1.75432 11.7878 1.40771 12.6261 1.40771 13.5C1.40771 14.374 1.75432 15.2122 2.3715 15.831L3.6 17.0573C3.74978 17.2066 3.86855 17.384 3.94945 17.5794C4.03035 17.7748 4.07179 17.9843 4.07138 18.1958V19.6324C4.07227 20.5064 4.4198 21.3444 5.03775 21.9626C5.65569 22.5807 6.49358 22.9286 7.36763 22.9298H8.80425C9.23061 22.9312 9.63924 23.1005 9.94163 23.4011L11.169 24.6285C11.7876 25.246 12.626 25.5928 13.5 25.5928C14.374 25.5928 15.2124 25.246 15.831 24.6285L17.0573 23.4011C17.3602 23.1007 17.7691 22.9314 18.1958 22.9298H19.6335C20.5076 22.9286 21.3454 22.5807 21.9634 21.9626C22.5813 21.3444 22.9289 20.5064 22.9298 19.6324V18.1958C22.9293 17.9843 22.9708 17.7748 23.0517 17.5794C23.1326 17.384 23.2513 17.2066 23.4011 17.0573L24.6285 15.831C25.2457 15.2122 25.5923 14.374 25.5923 13.5C25.5923 12.6261 25.2457 11.7878 24.6285 11.169ZM17.4713 11.844L12.9713 16.344C12.8931 16.4225 12.8001 16.4848 12.6978 16.5273C12.5955 16.5698 12.4858 16.5917 12.375 16.5917C12.2642 16.5917 12.1545 16.5698 12.0522 16.5273C11.9499 16.4848 11.8569 16.4225 11.7788 16.344L9.52875 14.094C9.37971 13.9341 9.29857 13.7225 9.30243 13.5039C9.30629 13.2853 9.39484 13.0768 9.54943 12.9222C9.70402 12.7676 9.91258 12.679 10.1312 12.6752C10.3498 12.6713 10.5613 12.7525 10.7213 12.9015L12.375 14.5564L16.2788 10.6538C16.4387 10.5047 16.6503 10.4236 16.8688 10.4274C17.0874 10.4313 17.296 10.5198 17.4506 10.6744C17.6052 10.829 17.6937 11.0376 17.6976 11.2562C17.7014 11.4748 17.6203 11.6863 17.4713 11.8463V11.844Z" fill="#C0001E"/>
</svg>
