<svg width="117" height="34" viewBox="0 0 117 34" fill="none" xmlns="http://www.w3.org/2000/svg">
<g clip-path="url(#clip0_710_1106)">
<path d="M6.86859 33.6517H0V3.19733H12.064C13.1709 3.19733 14.2358 3.34271 15.2585 3.63244C16.2813 3.92269 17.2374 4.33323 18.1273 4.86404C19.0167 5.39486 19.8297 6.03185 20.5652 6.77552C21.3008 7.51866 21.9312 8.34393 22.4569 9.24974C22.9822 10.156 23.3884 11.1256 23.6761 12.159C23.9634 13.1924 24.107 14.2687 24.107 15.3873C24.107 17.0582 23.7915 18.6334 23.1611 20.1124C22.5307 21.5919 21.6691 22.8837 20.576 23.9882C19.483 25.0927 18.2042 25.9635 16.7404 26.6004C15.2759 27.2374 13.7172 27.5559 12.064 27.5559H6.86859V33.6517ZM6.80396 10.1613V20.6029H12.0445C12.7626 20.6029 13.4381 20.4665 14.0716 20.1935C14.7046 19.9205 15.2585 19.5476 15.7335 19.0748C16.2085 18.6021 16.5824 18.0472 16.8562 17.4102C17.1302 16.7738 17.2671 16.0975 17.2671 15.3821C17.2671 14.6667 17.1302 13.9905 16.8562 13.354C16.5824 12.7176 16.208 12.1627 15.7335 11.6894C15.259 11.2161 14.7046 10.8438 14.0716 10.5708C13.4387 10.2978 12.7626 10.1613 12.0445 10.1613H6.80396Z" fill="#FF2400"/>
<path d="M33.0016 33.636H26.2249V3.18216H33.0016V33.636Z" fill="#FF2400"/>
<path d="M54.2589 33.6517L43.9707 15.7639V33.6517H37.2031V3.19733H44.1927L54.4446 21.0198V3.19733H61.2434V33.6517H54.2589Z" fill="#FF2400"/>
<path d="M82.8598 26.1141C81.67 26.7568 80.3133 27.1213 78.873 27.1213C74.1612 27.1213 70.3415 23.2267 70.3415 18.4227C70.3415 13.6187 74.1612 9.72408 78.873 9.72408C80.3138 9.72408 81.671 10.089 82.8614 10.7318C83.8419 8.6117 85.2154 6.71746 86.8856 5.14645C84.5612 3.68944 81.8254 2.8485 78.8966 2.8485C70.4595 2.8485 63.6201 9.82186 63.6201 18.4243C63.6201 27.0267 70.4595 34 78.8966 34C81.8254 34 84.5612 33.159 86.8856 31.702C85.2146 30.1306 83.8403 28.2358 82.8598 26.1141Z" fill="#FF2400"/>
<path d="M98.9038 2.83334C90.4667 2.83334 83.6279 9.80668 83.6279 18.4091C83.6279 27.0115 90.4667 33.9848 98.9038 33.9848C107.341 33.9848 114.181 27.0115 114.181 18.4091C114.181 9.80668 107.341 2.83334 98.9038 2.83334ZM98.8734 27.1077C94.162 27.1077 90.3422 23.2131 90.3422 18.4091C90.3422 13.6051 94.162 9.71048 98.8734 9.71048C103.585 9.71048 107.405 13.6051 107.405 18.4091C107.405 23.2131 103.585 27.1077 98.8734 27.1077Z" fill="#FF2400"/>
<path d="M98.8616 22.5497C101.067 22.5497 102.854 20.7274 102.854 18.4795C102.854 16.2315 101.067 14.4092 98.8616 14.4092C96.6576 14.4092 94.8696 16.2315 94.8696 18.4795C94.8696 20.7274 96.6576 22.5497 98.8616 22.5497Z" fill="#FF2400"/>
<path d="M116.913 5.40907C116.735 4.97733 116.315 4.69628 115.851 4.69628H112.327V1.15526C112.327 0.688582 112.048 0.266747 111.617 0.0884183C111.188 -0.0919965 110.694 0.00968245 110.365 0.338704L105.769 5.03469C105.554 5.25108 105.432 5.54412 105.432 5.85124V9.99194L97.648 17.8138C97.4116 18.0256 97.2649 18.3353 97.2649 18.6784C97.2649 19.3161 97.7799 19.8334 98.4143 19.8334C98.7645 19.8334 99.0314 19.6556 99.2918 19.4282L107.057 11.625H111.177C111.482 11.625 111.775 11.503 111.99 11.2866L116.663 6.6678C116.992 6.33721 117.091 5.84133 116.913 5.40907Z" fill="#04CFAA"/>
</g>
<defs>
<clipPath id="clip0_710_1106">
<rect width="117" height="34" fill="white"/>
</clipPath>
</defs>
</svg>
