<svg width="24" height="24" viewBox="0 0 24 24" fill="none" xmlns="http://www.w3.org/2000/svg">
<g clip-path="url(#clip0_532_3890)">
<path d="M21.822 0.015C21.797 0.013 21.776 0 21.75 0H11C9.346 0 8 1.346 8 3V4C8 4.552 8.448 5 9 5C9.552 5 10 4.552 10 4V3C10 2.449 10.449 2 11 2H15.659L15.354 2.102C14.544 2.382 14 3.145 14 4V19H11C10.449 19 10 18.551 10 18V16C10 15.448 9.552 15 9 15C8.448 15 8 15.448 8 16V18C8 19.654 9.346 21 11 21H14V22C14 23.103 14.897 24 16 24C16.214 24 16.417 23.969 16.637 23.901L22.645 21.898C23.456 21.618 24 20.855 24 20V2C24 0.834 22.995 -0.08 21.822 0.015Z" fill="#04CEA7"/>
<path d="M10.707 9.29301L6.707 5.29301C6.421 5.00701 5.991 4.92101 5.617 5.07601C5.244 5.23101 5 5.59601 5 6.00001V9.00001H1C0.448 9.00001 0 9.44801 0 10C0 10.552 0.448 11 1 11H5V14C5 14.404 5.244 14.769 5.617 14.924C5.991 15.079 6.421 14.993 6.707 14.707L10.707 10.707C11.098 10.316 11.098 9.68401 10.707 9.29301Z" fill="#04CEA7"/>
</g>
<defs>
<clipPath id="clip0_532_3890">
<rect width="24" height="24" fill="white"/>
</clipPath>
</defs>
</svg>
