<svg width="22" height="22" viewBox="0 0 22 22" fill="none" xmlns="http://www.w3.org/2000/svg">
<path d="M19.8982 18.602L14.9519 13.6556C15.919 12.4135 16.5002 10.8589 16.5002 9.16671C16.5002 5.12329 13.2102 1.83337 9.16683 1.83337C5.12341 1.83337 1.8335 5.12329 1.8335 9.16671C1.8335 13.2101 5.12341 16.5 9.16683 16.5C10.859 16.5 12.4137 15.9189 13.6557 14.9527L18.6021 19.899C18.7808 20.0769 19.0155 20.1667 19.2502 20.1667C19.4848 20.1667 19.7195 20.0769 19.8982 19.8981C20.2567 19.5397 20.2567 18.9604 19.8982 18.602ZM3.66683 9.16671C3.66683 6.13346 6.13358 3.66671 9.16683 3.66671C12.2001 3.66671 14.6668 6.13346 14.6668 9.16671C14.6668 12.2 12.2001 14.6667 9.16683 14.6667C6.13358 14.6667 3.66683 12.2 3.66683 9.16671Z" fill="#575779"/>
</svg>
