<svg width="27" height="27" viewBox="0 0 27 27" fill="none" xmlns="http://www.w3.org/2000/svg">
<path fill-rule="evenodd" clip-rule="evenodd" d="M11.1424 4.45693C7.45013 4.45693 4.45698 7.45008 4.45698 11.1423C4.45698 14.8346 7.45013 17.8277 11.1424 17.8277C14.8346 17.8277 17.8278 14.8346 17.8278 11.1423C17.8278 7.45008 14.8346 4.45693 11.1424 4.45693ZM2.22852 11.1423C2.22852 6.21933 6.21939 2.22846 11.1424 2.22846C16.0654 2.22846 20.0562 6.21933 20.0562 11.1423C20.0562 13.2022 19.3575 15.0989 18.1842 16.6083L24.1868 22.611C24.6219 23.0461 24.6219 23.7516 24.1868 24.1868C23.7517 24.6219 23.0462 24.6219 22.611 24.1868L16.6084 18.1841C15.099 19.3575 13.2023 20.0562 11.1424 20.0562C6.21939 20.0562 2.22852 16.0653 2.22852 11.1423Z" fill="white"/>
</svg>
