<svg width="40" height="40" viewBox="0 0 40 40" fill="none" xmlns="http://www.w3.org/2000/svg">
<g clip-path="url(#clip0_532_3974)">
<path d="M12.2082 15.2568C16.7633 13.7452 20.8394 14.5156 20.8394 14.5156L20.8534 15.7028C20.8737 17.6211 21.3982 17.796 21.3982 17.796C22.6387 18.7653 23.7638 17.7288 23.7638 17.7288C23.7638 17.7288 31.6982 11.8877 31.906 11.7343C32.1138 11.5798 33.3416 10.8183 33.3454 8.82137C33.3466 6.82194 31.6602 5.8691 31.6602 5.8691C31.6602 5.8691 25.1095 1.40903 23.7892 0.51068C22.4664 -0.388937 21.7251 0.172373 21.7251 0.172373C20.752 0.80844 20.8407 1.64217 20.8407 1.64217V3.97357C13.4791 5.48518 8.32843 9.95666 8.32843 9.95666C1.24934 15.9765 3.19808 24.3417 3.19808 24.3417C3.19808 24.3417 3.21582 24.7167 3.93298 24.7167C4.74771 24.7167 4.75658 24.2149 4.75658 24.2149C5.09362 21.3666 7.65309 16.7684 12.2082 15.2568Z" fill="white"/>
<path d="M36.8031 15.6546C36.8031 15.6546 36.7841 15.2821 36.0708 15.2821C35.2522 15.2821 35.2472 15.7839 35.2472 15.7839C34.9076 18.631 32.3507 23.2279 27.7943 24.742C23.2367 26.2524 19.163 25.482 19.163 25.482L19.1491 24.2947C19.1301 22.3713 18.6068 22.2016 18.6068 22.2016C17.3663 21.231 16.2387 22.2687 16.2387 22.2687C16.2387 22.2687 8.30555 28.1111 8.09775 28.2645C7.88869 28.4178 6.66597 29.1793 6.6609 31.1787C6.65583 33.1743 8.3423 34.1297 8.3423 34.1297C8.3423 34.1297 14.8905 38.5885 16.212 39.4881C17.5336 40.389 18.2774 39.829 18.2774 39.829C19.2492 39.1904 19.1618 38.363 19.1618 38.363V36.0278C26.5247 34.5187 31.674 30.0422 31.674 30.0422C38.7531 24.0211 36.8031 15.6546 36.8031 15.6546Z" fill="white"/>
</g>
<defs>
<clipPath id="clip0_532_3974">
<rect width="40" height="40" fill="white"/>
</clipPath>
</defs>
</svg>
