<svg width="21" height="21" viewBox="0 0 21 21" fill="none" xmlns="http://www.w3.org/2000/svg">
<path d="M1.86196 13.7664C1.46276 11.1716 1.06357 8.57682 0.66437 5.98201C0.575842 5.4068 1.23032 5.0145 1.69586 5.36369C2.93959 6.29648 4.18325 7.22921 5.42697 8.162C5.83647 8.46913 6.41988 8.36918 6.70377 7.94327L9.81 3.2839C10.1383 2.79152 10.8617 2.79152 11.19 3.2839L14.2962 7.94327C14.5801 8.36918 15.1635 8.46906 15.573 8.162C16.8167 7.22921 18.0604 6.29648 19.3041 5.36369C19.7696 5.0145 20.4241 5.4068 20.3357 5.98201C19.9365 8.57682 19.5373 11.1716 19.1381 13.7664H1.86196Z" fill="#FFB743"/>
<path d="M18.2374 18.0854H2.76276C2.26533 18.0854 1.86206 17.6821 1.86206 17.1846V15.2061H19.1382V17.1846C19.1381 17.6821 18.7348 18.0854 18.2374 18.0854Z" fill="#FFB743"/>
</svg>
